#Mesh

g mesh

v 0.000 0.000 0.000
v 0.030 0.000 0.000
v 0.030 0.000 0.000
v 0.030 0.800 0.000
v 0.030 0.800 0.000
v 0.080 0.800 0.000
v 0.080 0.800 0.000
v 0.000 1.000 0.000
v 0.000 0.000 0.000
v 0.024 0.000 -0.018
v 0.024 0.000 -0.018
v 0.024 0.800 -0.018
v 0.024 0.800 -0.018
v 0.065 0.800 -0.047
v 0.065 0.800 -0.047
v 0.000 1.000 0.000
v 0.000 0.000 0.000
v 0.009 0.000 -0.029
v 0.009 0.000 -0.029
v 0.009 0.800 -0.029
v 0.009 0.800 -0.029
v 0.025 0.800 -0.076
v 0.025 0.800 -0.076
v 0.000 1.000 0.000
v 0.000 0.000 0.000
v -0.009 0.000 -0.029
v -0.009 0.000 -0.029
v -0.009 0.800 -0.029
v -0.009 0.800 -0.029
v -0.025 0.800 -0.076
v -0.025 0.800 -0.076
v 0.000 1.000 0.000
v 0.000 0.000 0.000
v -0.024 0.000 -0.018
v -0.024 0.000 -0.018
v -0.024 0.800 -0.018
v -0.024 0.800 -0.018
v -0.065 0.800 -0.047
v -0.065 0.800 -0.047
v 0.000 1.000 0.000
v 0.000 0.000 0.000
v -0.030 0.000 0.000
v -0.030 0.000 0.000
v -0.030 0.800 0.000
v -0.030 0.800 0.000
v -0.080 0.800 0.000
v -0.080 0.800 0.000
v 0.000 1.000 0.000
v 0.000 0.000 0.000
v -0.024 0.000 0.018
v -0.024 0.000 0.018
v -0.024 0.800 0.018
v -0.024 0.800 0.018
v -0.065 0.800 0.047
v -0.065 0.800 0.047
v 0.000 1.000 0.000
v 0.000 0.000 0.000
v -0.009 0.000 0.029
v -0.009 0.000 0.029
v -0.009 0.800 0.029
v -0.009 0.800 0.029
v -0.025 0.800 0.076
v -0.025 0.800 0.076
v 0.000 1.000 0.000
v 0.000 0.000 0.000
v 0.009 0.000 0.029
v 0.009 0.000 0.029
v 0.009 0.800 0.029
v 0.009 0.800 0.029
v 0.025 0.800 0.076
v 0.025 0.800 0.076
v 0.000 1.000 0.000
v 0.000 0.000 0.000
v 0.024 0.000 0.018
v 0.024 0.000 0.018
v 0.024 0.800 0.018
v 0.024 0.800 0.018
v 0.065 0.800 0.047
v 0.065 0.800 0.047
v 0.000 1.000 0.000

vt 1.000 0.000
vt 1.000 0.250
vt 1.000 0.250
vt 1.000 0.500
vt 1.000 0.500
vt 1.000 0.750
vt 1.000 0.750
vt 1.000 1.000
vt 0.800 0.000
vt 0.800 0.250
vt 0.800 0.250
vt 0.800 0.500
vt 0.800 0.500
vt 0.800 0.750
vt 0.800 0.750
vt 0.800 1.000
vt 0.600 0.000
vt 0.600 0.250
vt 0.600 0.250
vt 0.600 0.500
vt 0.600 0.500
vt 0.600 0.750
vt 0.600 0.750
vt 0.600 1.000
vt 0.400 0.000
vt 0.400 0.250
vt 0.400 0.250
vt 0.400 0.500
vt 0.400 0.500
vt 0.400 0.750
vt 0.400 0.750
vt 0.400 1.000
vt 0.200 0.000
vt 0.200 0.250
vt 0.200 0.250
vt 0.200 0.500
vt 0.200 0.500
vt 0.200 0.750
vt 0.200 0.750
vt 0.200 1.000
vt 0.000 0.000
vt 0.000 0.250
vt 0.000 0.250
vt 0.000 0.500
vt 0.000 0.500
vt 0.000 0.750
vt 0.000 0.750
vt 0.000 1.000
vt 0.200 0.000
vt 0.200 0.250
vt 0.200 0.250
vt 0.200 0.500
vt 0.200 0.500
vt 0.200 0.750
vt 0.200 0.750
vt 0.200 1.000
vt 0.400 0.000
vt 0.400 0.250
vt 0.400 0.250
vt 0.400 0.500
vt 0.400 0.500
vt 0.400 0.750
vt 0.400 0.750
vt 0.400 1.000
vt 0.600 0.000
vt 0.600 0.250
vt 0.600 0.250
vt 0.600 0.500
vt 0.600 0.500
vt 0.600 0.750
vt 0.600 0.750
vt 0.600 1.000
vt 0.800 0.000
vt 0.800 0.250
vt 0.800 0.250
vt 0.800 0.500
vt 0.800 0.500
vt 0.800 0.750
vt 0.800 0.750
vt 0.800 1.000

vn 0.000 -1.000 0.000
vn 0.000 -1.000 0.000
vn 0.994 0.000 -0.108
vn 0.994 0.000 0.108
vn 0.000 -1.000 0.000
vn 0.000 -1.000 0.000
vn 0.928 0.371 0.000
vn 0.889 0.356 0.289
vn 0.000 -1.000 0.000
vn 0.000 -1.000 0.000
vn 0.741 0.000 -0.671
vn 0.868 0.000 -0.497
vn 0.000 -1.000 0.000
vn 0.000 -1.000 0.000
vn 0.751 0.371 -0.546
vn 0.889 0.356 -0.289
vn 0.000 -1.000 0.000
vn 0.000 -1.000 0.000
vn 0.205 0.000 -0.979
vn 0.410 0.000 -0.912
vn 0.000 -1.000 0.000
vn 0.000 -1.000 0.000
vn 0.287 0.371 -0.883
vn 0.549 0.356 -0.756
vn 0.000 -1.000 0.000
vn 0.000 -1.000 0.000
vn -0.410 0.000 -0.912
vn -0.205 0.000 -0.979
vn 0.000 -1.000 0.000
vn 0.000 -1.000 0.000
vn -0.287 0.371 -0.883
vn 0.000 0.356 -0.935
vn 0.000 -1.000 0.000
vn 0.000 -1.000 0.000
vn -0.868 0.000 -0.497
vn -0.741 0.000 -0.671
vn 0.000 -1.000 0.000
vn 0.000 -1.000 0.000
vn -0.751 0.371 -0.546
vn -0.549 0.356 -0.756
vn 0.000 -1.000 0.000
vn 0.000 -1.000 0.000
vn -0.994 0.000 0.108
vn -0.994 0.000 -0.108
vn 0.000 -1.000 0.000
vn 0.000 -1.000 0.000
vn -0.928 0.371 0.000
vn -0.889 0.356 -0.289
vn 0.000 -1.000 0.000
vn 0.000 -1.000 0.000
vn -0.741 0.000 0.671
vn -0.868 0.000 0.497
vn 0.000 -1.000 0.000
vn 0.000 -1.000 0.000
vn -0.751 0.371 0.546
vn -0.889 0.356 0.289
vn 0.000 -1.000 0.000
vn 0.000 -1.000 0.000
vn -0.205 0.000 0.979
vn -0.410 0.000 0.912
vn 0.000 -1.000 0.000
vn 0.000 -1.000 0.000
vn -0.287 0.371 0.883
vn -0.549 0.356 0.756
vn 0.000 -1.000 0.000
vn 0.000 -1.000 0.000
vn 0.410 0.000 0.912
vn 0.205 0.000 0.979
vn 0.000 -1.000 0.000
vn 0.000 -1.000 0.000
vn 0.287 0.371 0.883
vn 0.000 0.356 0.935
vn 0.000 -1.000 0.000
vn 0.000 -1.000 0.000
vn 0.868 0.000 0.497
vn 0.741 0.000 0.671
vn 0.000 -1.000 0.000
vn 0.000 -1.000 0.000
vn 0.751 0.371 0.546
vn 0.549 0.356 0.756

f 1/1/1 9/9/9 10/10/10
f 1/1/1 10/10/10 2/2/2
f 3/3/3 11/11/11 12/12/12
f 3/3/3 12/12/12 4/4/4
f 5/5/5 13/13/13 14/14/14
f 5/5/5 14/14/14 6/6/6
f 7/7/7 15/15/15 16/16/16
f 7/7/7 16/16/16 8/8/8
f 9/9/9 17/17/17 18/18/18
f 9/9/9 18/18/18 10/10/10
f 11/11/11 19/19/19 20/20/20
f 11/11/11 20/20/20 12/12/12
f 13/13/13 21/21/21 22/22/22
f 13/13/13 22/22/22 14/14/14
f 15/15/15 23/23/23 24/24/24
f 15/15/15 24/24/24 16/16/16
f 17/17/17 25/25/25 26/26/26
f 17/17/17 26/26/26 18/18/18
f 19/19/19 27/27/27 28/28/28
f 19/19/19 28/28/28 20/20/20
f 21/21/21 29/29/29 30/30/30
f 21/21/21 30/30/30 22/22/22
f 23/23/23 31/31/31 32/32/32
f 23/23/23 32/32/32 24/24/24
f 25/25/25 33/33/33 34/34/34
f 25/25/25 34/34/34 26/26/26
f 27/27/27 35/35/35 36/36/36
f 27/27/27 36/36/36 28/28/28
f 29/29/29 37/37/37 38/38/38
f 29/29/29 38/38/38 30/30/30
f 31/31/31 39/39/39 40/40/40
f 31/31/31 40/40/40 32/32/32
f 33/33/33 41/41/41 42/42/42
f 33/33/33 42/42/42 34/34/34
f 35/35/35 43/43/43 44/44/44
f 35/35/35 44/44/44 36/36/36
f 37/37/37 45/45/45 46/46/46
f 37/37/37 46/46/46 38/38/38
f 39/39/39 47/47/47 48/48/48
f 39/39/39 48/48/48 40/40/40
f 41/41/41 49/49/49 50/50/50
f 41/41/41 50/50/50 42/42/42
f 43/43/43 51/51/51 52/52/52
f 43/43/43 52/52/52 44/44/44
f 45/45/45 53/53/53 54/54/54
f 45/45/45 54/54/54 46/46/46
f 47/47/47 55/55/55 56/56/56
f 47/47/47 56/56/56 48/48/48
f 49/49/49 57/57/57 58/58/58
f 49/49/49 58/58/58 50/50/50
f 51/51/51 59/59/59 60/60/60
f 51/51/51 60/60/60 52/52/52
f 53/53/53 61/61/61 62/62/62
f 53/53/53 62/62/62 54/54/54
f 55/55/55 63/63/63 64/64/64
f 55/55/55 64/64/64 56/56/56
f 57/57/57 65/65/65 66/66/66
f 57/57/57 66/66/66 58/58/58
f 59/59/59 67/67/67 68/68/68
f 59/59/59 68/68/68 60/60/60
f 61/61/61 69/69/69 70/70/70
f 61/61/61 70/70/70 62/62/62
f 63/63/63 71/71/71 72/72/72
f 63/63/63 72/72/72 64/64/64
f 65/65/65 73/73/73 74/74/74
f 65/65/65 74/74/74 66/66/66
f 67/67/67 75/75/75 76/76/76
f 67/67/67 76/76/76 68/68/68
f 69/69/69 77/77/77 78/78/78
f 69/69/69 78/78/78 70/70/70
f 71/71/71 79/79/79 80/80/80
f 71/71/71 80/80/80 72/72/72
f 73/73/73 1/1/1 2/2/2
f 73/73/73 2/2/2 74/74/74
f 75/75/75 3/3/3 4/4/4
f 75/75/75 4/4/4 76/76/76
f 77/77/77 5/5/5 6/6/6
f 77/77/77 6/6/6 78/78/78
f 79/79/79 7/7/7 8/8/8
f 79/79/79 8/8/8 80/80/80
